<svg width="21" height="21" viewBox="0 0 21 21" fill="none" xmlns="http://www.w3.org/2000/svg">
<g clip-path="url(#clip0_3_98)">
<path d="M10.6144 3.91202L10.6035 2.66202H9.35353C7.07283 2.65954 4.87311 3.50736 3.18402 5.03987C1.49494 6.57239 0.437811 8.67953 0.219122 10.9497C0.000433609 13.2199 0.635891 15.4901 2.00137 17.3169C3.36686 19.1436 5.36429 20.3958 7.60353 20.8287C8.17423 20.9385 8.75402 20.9943 9.33519 20.9954C11.7668 20.9912 14.0978 20.0247 15.8189 18.307C17.54 16.5893 18.5112 14.2602 18.5202 11.8287V10.5787H10.6035L10.6144 3.91202ZM15.9002 13.0787C15.6709 14.2652 15.1228 15.3668 14.3148 16.2654C13.5068 17.1639 12.4694 17.8255 11.3138 18.1791C10.1583 18.5326 8.92824 18.5648 7.75577 18.2723C6.58329 17.9797 5.51263 17.3733 4.65869 16.5183C3.80475 15.6632 3.19977 14.5918 2.90868 13.4189C2.61759 12.2461 2.65139 11.0161 3.00644 9.86103C3.36148 8.70593 4.02438 7.66933 4.92398 6.86247C5.82358 6.05561 6.92592 5.50896 8.11269 5.28119L8.10353 13.0787H15.9002Z" fill="#D0CFC5" fill-opacity="0.85"/>
<path d="M12.2701 0.999481V8.91198H20.1868C20.1765 6.81591 19.339 4.80869 17.8564 3.32691C16.3739 1.84514 14.3662 1.00868 12.2701 0.999481Z" fill="#D0CFC5" fill-opacity="0.85"/>
</g>
<defs>
<clipPath id="clip0_3_98">
<rect width="20" height="20" fill="white" transform="translate(0.18692 0.995331)"/>
</clipPath>
</defs>
</svg>
