<svg width="20" height="20" viewBox="0 0 20 20" fill="none" xmlns="http://www.w3.org/2000/svg">
<g clip-path="url(#clip0_7_63)">
<path d="M19.8333 9.56482C19.1237 7.85682 18.0541 6.32193 16.6975 5.06482L19.2142 2.54898L17.4492 0.782318L14.6375 3.59482C13.2119 2.831 11.6173 2.43757 10 2.45065C2.91667 2.45065 0.2725 9.27398 0.166667 9.56482L0 9.99982L0.166667 10.4348C0.876275 12.1428 1.94586 13.6777 3.3025 14.9348L0.7825 17.449L2.55083 19.2173L5.3625 16.4048C6.78809 17.1686 8.38273 17.5621 10 17.549C17.0833 17.549 19.7275 10.7257 19.8333 10.4348L20 9.99982L19.8333 9.56482ZM2.67667 9.99982C3.30417 8.70398 5.51583 4.92982 10 4.92982C10.9488 4.92593 11.8891 5.10738 12.7683 5.46398L11.3017 6.93065C10.6902 6.6711 10.0152 6.60013 9.36316 6.72687C8.71112 6.8536 8.11182 7.17225 7.64213 7.64194C7.17244 8.11163 6.85378 8.71094 6.72705 9.36298C6.60031 10.015 6.67128 10.6901 6.93083 11.3015L5.05417 13.1773C4.06213 12.2832 3.25447 11.2038 2.67667 9.99982ZM10 15.0698C9.05124 15.0737 8.11086 14.8923 7.23167 14.5357L8.69833 13.069C9.30976 13.3285 9.9848 13.3995 10.6368 13.2728C11.2889 13.146 11.8882 12.8274 12.3579 12.3577C12.8276 11.888 13.1462 11.2887 13.273 10.6367C13.3997 9.98462 13.3287 9.30958 13.0692 8.69815L14.9458 6.82232C15.9381 7.71621 16.7457 8.79567 17.3233 9.99982C16.6958 11.2957 14.4842 15.0698 10 15.0698Z" fill="#374957"/>
</g>
<defs>
<clipPath id="clip0_7_63">
<rect width="20" height="20" fill="white"/>
</clipPath>
</defs>
</svg>
