<svg width="18" height="18" viewBox="0 0 18 18" fill="none" xmlns="http://www.w3.org/2000/svg">
<g clip-path="url(#clip0_7_66)">
<path d="M17.85 8.6087C17.7525 8.34695 15.375 2.2052 9 2.2052C2.625 2.2052 0.2445 8.34695 0.15 8.6087L0 9.0002L0.15 9.3917C0.2475 9.65345 2.625 15.7952 9 15.7952C15.375 15.7952 17.7555 9.65345 17.85 9.3917L18 9.0002L17.85 8.6087ZM9 13.5639C4.9365 13.5639 2.96925 10.1784 2.4075 9.0002C2.97075 7.81895 4.93875 4.43645 9 4.43645C13.0612 4.43645 15.0285 7.8182 15.5925 9.0002C15.0285 10.1822 13.0612 13.5639 9 13.5639Z" fill="#374957"/>
<path d="M9.0001 11.9997C10.657 11.9997 12.0001 10.6566 12.0001 8.99975C12.0001 7.3429 10.657 5.99976 9.0001 5.99976C7.34325 5.99976 6.00011 7.3429 6.00011 8.99975C6.00011 10.6566 7.34325 11.9997 9.0001 11.9997Z" fill="#374957"/>
</g>
<defs>
<clipPath id="clip0_7_66">
<rect width="18" height="18" fill="white"/>
</clipPath>
</defs>
</svg>
